<?xml version="1.0" standalone="no"?>
<!DOCTYPE svg PUBLIC "-//W3C//DTD SVG 20010904//EN"
 "http://www.w3.org/TR/2001/REC-SVG-20010904/DTD/svg10.dtd">
<svg version="1.0" xmlns="http://www.w3.org/2000/svg"
 width="1290.000000pt" height="303.000000pt" viewBox="0 0 1290.000000 303.000000"
 preserveAspectRatio="xMidYMid meet">
<metadata>
Created by potrace 1.10, written by Peter Selinger 2001-2011
</metadata>
<g transform="translate(0.000000,303.000000) scale(0.100000,-0.100000)"
fill="#ffffff" stroke="none">
<path d="M11095 2690 c-55 -4 -116 -11 -135 -17 -19 -6 -62 -19 -95 -29 -87
-25 -179 -65 -240 -105 -16 -10 -37 -22 -45 -26 -36 -16 -170 -126 -227 -185
-64 -67 -193 -249 -193 -272 0 -7 -7 -19 -15 -26 -8 -7 -15 -18 -15 -25 0 -7
-7 -26 -15 -41 -8 -16 -15 -36 -15 -45 0 -8 -7 -24 -15 -35 -8 -10 -15 -32
-15 -47 0 -16 -5 -38 -12 -50 -19 -35 -34 -269 -25 -387 10 -119 43 -257 86
-355 24 -54 54 -113 72 -140 10 -16 22 -37 26 -45 15 -34 106 -140 180 -210
220 -210 515 -330 811 -330 101 0 240 19 307 42 17 5 46 13 65 17 65 14 197
78 305 150 81 53 241 207 279 268 14 24 26 45 26 47 0 4 -235 166 -278 191 -9
6 -34 23 -54 38 l-38 28 -77 -82 c-82 -85 -114 -110 -210 -157 -89 -44 -120
-54 -223 -68 -79 -11 -111 -11 -195 1 -55 8 -116 20 -135 28 -55 21 -94 38
-110 48 -8 5 -23 12 -32 15 -10 4 -18 10 -18 14 0 5 -8 11 -18 14 -10 4 -43
30 -74 59 -114 109 -185 229 -222 379 -47 192 1 417 123 583 119 160 271 253
479 291 77 14 104 15 165 6 163 -26 195 -37 332 -109 17 -9 72 -58 123 -110
88 -89 106 -102 114 -85 3 8 284 199 324 220 13 7 24 21 24 30 -1 43 -261 299
-340 335 -8 4 -28 16 -45 27 -16 11 -37 23 -45 26 -8 3 -30 12 -47 20 -210 93
-364 119 -618 104z"/>
<path d="M4405 2671 c-122 -23 -215 -47 -229 -61 -5 -5 -16 -10 -24 -10 -38 0
-249 -124 -322 -190 -94 -85 -126 -119 -190 -205 -52 -70 -67 -92 -79 -122 -6
-11 -15 -24 -20 -28 -6 -3 -11 -13 -11 -22 0 -9 -6 -24 -13 -32 -19 -23 -66
-171 -88 -275 -24 -114 -26 -327 -3 -430 25 -117 48 -189 89 -281 7 -16 16
-37 19 -45 3 -8 15 -28 26 -45 11 -16 23 -37 27 -45 34 -74 229 -276 338 -349
77 -52 209 -121 230 -121 7 0 26 -6 42 -14 98 -49 336 -81 473 -65 176 21 295
46 325 69 6 4 28 11 50 14 40 7 41 6 121 -74 l80 -80 277 0 c152 0 277 3 277
8 0 4 -159 166 -353 360 l-353 353 -144 4 c-80 2 -215 7 -299 11 l-155 6 75
-72 c40 -40 85 -80 99 -90 45 -33 14 -45 -108 -44 -124 2 -209 23 -302 76 -8
4 -22 11 -30 15 -63 28 -190 148 -239 226 -106 167 -141 335 -107 517 52 278
232 478 511 566 89 28 305 26 395 -3 108 -35 139 -51 230 -119 130 -97 213
-221 264 -395 22 -76 22 -272 0 -348 -30 -100 -115 -261 -151 -284 -7 -4 -13
-15 -13 -22 0 -13 41 -15 268 -15 l269 0 17 43 c10 23 24 57 32 75 8 18 14 41
14 51 0 10 6 34 14 52 7 19 19 93 25 164 10 108 10 151 -2 251 -8 67 -20 131
-26 142 -6 11 -11 34 -11 49 0 16 -7 38 -15 49 -8 10 -15 28 -15 40 0 11 -7
29 -15 40 -8 10 -15 26 -15 35 0 9 -7 22 -15 29 -8 7 -15 19 -15 26 0 19 -88
146 -158 229 -140 164 -351 297 -572 358 -162 45 -345 56 -495 28z"/>
<path d="M205 2658 c-3 -7 -4 -530 -3 -1163 l3 -1150 205 -3 c113 -1 215 0
228 3 l22 5 0 428 c0 320 3 431 12 440 16 16 859 17 889 2 19 -11 19 -24 19
-437 -1 -234 3 -430 8 -435 5 -5 105 -7 223 -6 l214 3 0 1160 0 1160 -214 3
c-118 1 -218 -1 -223 -6 -5 -5 -9 -221 -8 -481 0 -312 -3 -478 -10 -491 -10
-19 -23 -20 -448 -20 -327 0 -441 3 -450 12 -9 9 -12 132 -12 494 0 430 -2
483 -16 488 -9 3 -110 6 -225 6 -159 0 -211 -3 -214 -12z"/>
<path d="M6215 2658 c-3 -7 -4 -530 -3 -1163 l3 -1150 225 0 225 0 3 929 c1
666 5 933 13 943 15 18 389 17 469 -1 103 -24 163 -66 203 -141 50 -95 41
-262 -19 -345 -29 -41 -84 -90 -100 -90 -3 0 -20 -6 -37 -14 -37 -16 -157 -36
-219 -36 -24 0 -49 -5 -56 -12 -19 -19 -17 -402 2 -417 32 -27 337 4 449 45
83 31 123 48 138 61 8 7 19 13 23 13 4 0 21 10 38 22 125 89 209 210 260 373
18 59 21 95 22 235 0 166 -6 206 -49 320 -29 77 -35 87 -100 172 -84 111 -213
193 -375 239 -71 21 -101 22 -592 26 -426 4 -519 2 -523 -9z"/>
<path d="M8678 2659 c-10 -5 -18 -16 -18 -24 0 -8 -6 -29 -14 -47 -8 -18 -21
-51 -29 -73 -8 -22 -22 -59 -31 -82 -9 -24 -23 -62 -32 -85 -9 -24 -23 -61
-31 -83 -32 -86 -46 -121 -59 -152 -8 -17 -14 -37 -14 -45 0 -7 -7 -22 -15
-32 -8 -11 -15 -29 -15 -40 0 -12 -7 -30 -15 -40 -8 -11 -15 -30 -15 -42 0
-13 -4 -25 -9 -28 -5 -3 -12 -18 -15 -33 -4 -16 -13 -41 -20 -58 -8 -16 -22
-50 -31 -75 -27 -71 -46 -122 -60 -160 -16 -45 -38 -103 -60 -160 -9 -25 -24
-63 -32 -85 -9 -22 -22 -54 -29 -72 -8 -17 -14 -37 -14 -45 0 -7 -7 -22 -15
-32 -8 -11 -15 -27 -15 -37 0 -9 -7 -30 -15 -45 -8 -16 -15 -37 -15 -46 0 -9
-4 -19 -9 -22 -5 -3 -12 -18 -15 -33 -4 -16 -13 -41 -20 -58 -8 -16 -21 -49
-30 -72 -9 -24 -23 -62 -32 -85 -21 -55 -42 -113 -60 -160 -15 -41 -35 -94
-60 -160 -9 -24 -20 -51 -25 -60 -25 -48 -24 -48 222 -48 140 0 238 4 250 10
10 6 19 21 19 33 0 13 4 27 9 33 5 5 14 25 19 44 6 19 20 60 32 90 40 104 51
135 57 155 3 11 11 34 19 52 8 17 14 37 14 45 0 8 4 18 9 24 5 5 14 25 19 44
6 19 20 60 32 90 12 30 24 64 27 75 3 11 11 34 19 52 8 17 14 37 14 45 0 8 4
18 9 23 5 6 14 26 19 45 6 19 20 60 32 90 12 30 24 66 27 80 3 14 12 34 19 45
8 11 14 29 14 40 0 12 4 25 9 30 5 6 14 26 19 45 6 19 20 60 32 90 12 30 24
66 27 80 3 14 12 34 19 45 8 11 14 29 14 42 0 12 4 24 9 28 5 3 13 20 16 38 9
37 43 90 55 82 4 -3 10 -17 13 -32 2 -16 15 -53 27 -83 12 -30 25 -70 30 -89
5 -18 13 -38 19 -44 6 -6 11 -18 11 -27 0 -8 7 -28 15 -44 8 -15 15 -36 15
-45 0 -9 6 -25 14 -36 7 -11 16 -31 19 -45 3 -14 15 -50 27 -80 12 -30 25 -66
30 -80 5 -14 18 -50 30 -80 12 -30 25 -70 30 -89 5 -18 13 -38 19 -44 6 -6 11
-18 11 -27 0 -8 7 -28 15 -44 8 -15 15 -36 15 -45 0 -9 6 -25 14 -36 7 -11 16
-31 19 -45 3 -14 15 -50 26 -80 39 -98 52 -134 63 -170 5 -19 14 -39 19 -44 5
-6 9 -19 9 -31 0 -12 7 -30 15 -41 8 -10 15 -27 15 -36 0 -17 9 -40 51 -136
l19 -42 232 2 c262 3 256 1 224 79 -9 22 -23 58 -32 82 -8 23 -22 55 -30 70
-8 16 -14 36 -14 46 0 9 -7 26 -15 37 -8 10 -15 26 -15 34 0 8 -6 27 -14 42
-8 15 -17 40 -21 57 -4 17 -11 33 -16 36 -5 4 -9 15 -9 27 0 11 -6 32 -14 46
-13 25 -29 66 -62 155 -8 20 -21 55 -29 77 -8 22 -22 59 -31 83 -9 23 -22 56
-30 72 -7 17 -16 42 -20 58 -3 15 -10 30 -15 33 -5 3 -9 13 -9 22 0 9 -7 30
-15 46 -8 15 -15 35 -15 43 0 8 -6 27 -14 41 -8 15 -21 45 -29 67 -8 22 -23
60 -32 85 -9 25 -23 61 -30 80 -31 86 -48 127 -61 153 -8 16 -14 36 -14 46 0
9 -7 26 -15 37 -8 10 -15 28 -15 40 0 11 -7 29 -15 40 -8 10 -15 27 -15 37 0
11 -6 31 -14 45 -13 25 -25 56 -60 150 -8 20 -22 57 -31 82 -9 25 -23 61 -30
80 -34 92 -48 128 -65 160 l-18 35 -188 2 c-116 2 -196 -1 -206 -8z"/>
<path d="M2925 2646 c-16 -8 -57 -21 -90 -31 -33 -9 -76 -23 -95 -30 -32 -11
-113 -36 -167 -50 -13 -4 -25 -16 -28 -28 -3 -12 -4 -503 -3 -1092 l3 -1070
221 -3 c178 -2 223 0 233 11 8 11 10 312 9 1158 l-3 1144 -25 2 c-14 1 -38 -4
-55 -11z"/>
<path d="M8550 876 c0 -7 7 -19 15 -26 8 -7 15 -19 15 -26 0 -8 4 -14 9 -14
10 0 34 -38 47 -72 3 -10 10 -18 15 -18 5 0 14 -10 19 -22 6 -13 19 -36 30
-53 11 -16 25 -40 31 -52 7 -13 15 -23 19 -23 4 0 10 -8 14 -17 7 -22 22 -46
59 -94 15 -20 27 -40 27 -43 0 -4 7 -18 16 -32 l17 -25 13 23 c7 13 18 32 24
43 15 28 29 50 75 120 51 77 62 95 74 123 6 12 15 22 20 22 5 0 12 8 15 18 13
34 37 72 47 72 5 0 9 7 9 16 0 8 11 30 25 48 14 18 25 36 25 39 0 4 -148 7
-330 7 -274 0 -330 -2 -330 -14z"/>
</g>
</svg>
